<svg viewBox="0 0 896 504" height="504" width="896" xmlns="http://www.w3.org/2000/svg" version="1.1">
    <style>
        .svgAnimate {
            animation: 5s anim-svgAnimate ease-out forwards;
            animation-delay: var(--delay);
        }

        @keyframes anim-svgAnimate {
            0% {
                opacity: 0;
                transform: translateY(80%);
            }

            20% {
                opacity: 0;
            }

            50% {
                opacity: 1;
                transform: translateY(0%);
            }

            100% {
                opacity: 1;
                transform: translateY(0%);
            }


        }
    </style>
    <g transform-origin="center" transform="scale(1, 1) rotate(0)">
        <rect x="0" y="0" width="896" height="504" fill="#002438"></rect>
        <linearGradient id="linear-gradient-r1">
            <stop offset="0%" stop-color="#ff0005ff" stop-opacity="100%"></stop>
            <stop offset="100%" stop-color="#ff0092ff" stop-opacity="100%"></stop>
        </linearGradient>
        <filter id="shadow-r1" x="0" width="100%" y="-20%" height="150%">
            <feDropShadow dx="-11" dy="2" stdDeviation="12" flood-color="#00000061"></feDropShadow>
        </filter>

        <path
            d="M0 0 0,287.9777040840872 C 29.866666666666674,287.7279618326649 89.6,283.35642024561395 149.33333333333334,286.7289928269759 C 209.0666666666667,290.1015654083379 238.93333333333334,305.38285394264017 298.6666666666667,304.84056699089706 C 358.40000000000003,304.298280039154 388.26666666666665,291.10317581455035 448,284.01755806826054 C 507.73333333333335,276.9319403219707 537.6,281.48755162895105 597.3333333333334,269.412478259448 C 657.0666666666667,257.337404889945 686.9333333333334,230.22138248806448 746.6666666666667,223.64219122074545 C 806.4000000000001,217.0629999534264 866.1333333333333,233.94165578243138 896,236.51652192285286 L896 504 L0 504Z"
            fill="none" stroke-linecap="round" stroke-width="1" class="svgAnimate"
            style="--delay: 1.25s; opacity: 0; fill: url(&quot;#linear-gradient-r1&quot;);" filter="url(#shadow-r1)">
        </path>
        <path
            d="M0 0 0,406.9507927544291 C 29.86666666666667,412.091897873496 89.60000000000001,433.42597928546616 149.33333333333334,432.65631834976375 C 209.06666666666666,431.88665741406135 238.93333333333334,413.15901473050445 298.6666666666667,403.102488075917 C 358.40000000000003,393.04596142132954 388.26666666666665,399.511682290985 448,382.3736850768266 C 507.73333333333335,365.2356878626682 537.6,326.75026403442274 597.3333333333334,317.4125020051251 C 657.0666666666667,308.0747399758274 686.9333333333334,330.9579015027446 746.6666666666667,335.6848749303383 C 806.4000000000001,340.411848357932 866.1333333333333,339.9748703005426 896,341.04736914309365 L896 504 L0 504Z"
            fill="none" stroke-linecap="round" stroke-width="1" class="svgAnimate"
            style="--delay: 0.95s; opacity: 0; fill: url(&quot;#linear-gradient-r1&quot;);" filter="url(#shadow-r1)">
        </path>
        <path
            d="M0 0 0,560.4720697086304 C 29.86666666666667,552.815139383619 89.60000000000001,535.2148536464584 149.33333333333334,522.1874180835733 C 209.0666666666667,509.1599825206883 238.93333333333337,517.5358129530189 298.6666666666667,495.33489189420516 C 358.4,473.13397083539144 388.26666666666665,423.279145580781 448,411.18281278950474 C 507.73333333333335,399.08647999822847 537.6,428.72980741197495 597.3333333333334,434.8532279378238 C 657.0666666666667,440.9766484636727 686.9333333333334,430.48133988803875 746.6666666666667,441.79991541874904 C 806.4000000000001,453.11849094945933 866.1333333333333,481.5168675568501 896,491.4461055913754 L896 504 L0 504Z"
            fill="none" stroke-linecap="round" stroke-width="1" class="svgAnimate"
            style="--delay: 0.75s; opacity: 0; fill: url(&quot;#linear-gradient-r1&quot;);" filter="url(#shadow-r1)">
        </path>
    </g>

</svg>