<svg xmlns="http://www.w3.org/2000/svg" xmlns:xlink="http://www.w3.org/1999/xlink" width="500" zoomAndPan="magnify" viewBox="0 0 375 374.999991" height="500" preserveAspectRatio="xMidYMid meet" version="1.0"><defs><g/></defs><g fill="#e50004" fill-opacity="1"><g transform="translate(90.210431, 330.972165)"><g><path d="M 168.1875 0 L 135.359375 0 L 107.46875 -182.546875 L 76.703125 0 L 43.890625 0 L 4.515625 -273.203125 L 38.96875 -273.203125 L 61.9375 -74.25 L 94.75 -273.203125 L 124.296875 -273.203125 L 153.421875 -74.25 L 178.4375 -273.203125 L 211.25 -273.203125 Z M 168.1875 0 "/></g></g></g><g fill="#ffffff" fill-opacity="1"><g transform="translate(69.842233, 319.495174)"><g><path d="M 168.1875 0 L 135.359375 0 L 107.46875 -182.546875 L 76.703125 0 L 43.890625 0 L 4.515625 -273.203125 L 38.96875 -273.203125 L 61.9375 -74.25 L 94.75 -273.203125 L 124.296875 -273.203125 L 153.421875 -74.25 L 178.4375 -273.203125 L 211.25 -273.203125 Z M 168.1875 0 "/></g></g></g></svg>