<svg xmlns="http://www.w3.org/2000/svg" xmlns:xlink="http://www.w3.org/1999/xlink" width="500" zoomAndPan="magnify" viewBox="0 0 375 374.999991" height="500" preserveAspectRatio="xMidYMid meet" version="1.0"><defs><g/></defs><g fill="#002438" fill-opacity="1"><g transform="translate(86.639523, 240.54848)"><g><path d="M 69.625 0 L 56.046875 0 L 44.5 -75.578125 L 31.765625 0 L 18.171875 0 L 1.875 -113.109375 L 16.140625 -113.109375 L 25.640625 -30.734375 L 39.234375 -113.109375 L 51.453125 -113.109375 L 63.515625 -30.734375 L 73.875 -113.109375 L 87.46875 -113.109375 Z M 69.625 0 "/></g></g></g><g fill="#e50004" fill-opacity="1"><g transform="translate(80.331649, 236.516586)"><g><path d="M 69.625 0 L 56.046875 0 L 44.5 -75.578125 L 31.765625 0 L 18.171875 0 L 1.875 -113.109375 L 16.140625 -113.109375 L 25.640625 -30.734375 L 39.234375 -113.109375 L 51.453125 -113.109375 L 63.515625 -30.734375 L 73.875 -113.109375 L 87.46875 -113.109375 Z M 69.625 0 "/></g></g></g><g fill="#002438" fill-opacity="1"><g transform="translate(168.407396, 201.749987)"><g><path d="M 10.53125 0 L 9.4375 -6.1875 L 4.65625 -6.1875 L 3.515625 0 L 0.328125 0 L 5.390625 -26.96875 L 8.953125 -26.96875 L 13.96875 0 Z M 7.078125 -20.734375 L 5.1875 -9.1875 L 8.90625 -9.1875 Z M 7.078125 -20.734375 "/></g></g></g><g fill="#002438" fill-opacity="1"><g transform="translate(189.415632, 201.749987)"><g><path d="M 8.421875 -23.84375 L 8.421875 0 L 5.0625 0 L 5.0625 -23.84375 L 0.484375 -23.84375 L 0.484375 -26.96875 L 12.921875 -26.96875 L 12.921875 -23.84375 Z M 8.421875 -23.84375 "/></g></g></g><g fill="#002438" fill-opacity="1"><g transform="translate(209.533391, 201.749987)"><g><path d="M 1.828125 0 L 1.828125 -26.96875 L 12.390625 -26.96875 L 12.390625 -23.890625 L 5.1875 -23.890625 L 5.1875 -15.5 L 10.40625 -15.5 L 10.40625 -12.546875 L 5.1875 -12.546875 L 5.1875 -3.078125 L 12.390625 -3.078125 L 12.390625 0 Z M 1.828125 0 "/></g></g></g><g fill="#002438" fill-opacity="1"><g transform="translate(229.651148, 201.749987)"><g><path d="M 13.96875 0.25 C 12.726562 0.25 11.847656 0.0234375 11.328125 -0.421875 C 10.816406 -0.867188 10.5625 -1.726562 10.5625 -3 L 10.5625 -9.15625 C 10.5625 -9.957031 10.375 -10.601562 10 -11.09375 C 9.625 -11.582031 9.046875 -11.828125 8.265625 -11.828125 L 5.21875 -11.828125 L 5.21875 0 L 1.828125 0 L 1.828125 -26.96875 L 8.421875 -26.96875 C 10.148438 -26.96875 11.476562 -26.523438 12.40625 -25.640625 C 13.34375 -24.765625 13.8125 -23.394531 13.8125 -21.53125 L 13.8125 -17.453125 C 13.8125 -16.285156 13.597656 -15.34375 13.171875 -14.625 C 12.753906 -13.914062 12.007812 -13.425781 10.9375 -13.15625 C 11.988281 -12.9375 12.75 -12.421875 13.21875 -11.609375 C 13.6875 -10.804688 13.921875 -9.921875 13.921875 -8.953125 L 13.921875 -3.203125 C 13.921875 -2.492188 14.234375 -2.140625 14.859375 -2.140625 L 14.859375 0.25 Z M 10.4375 -21.65625 C 10.4375 -22.363281 10.273438 -22.914062 9.953125 -23.3125 C 9.628906 -23.71875 9.101562 -23.921875 8.375 -23.921875 L 5.21875 -23.921875 L 5.21875 -14.53125 L 8.0625 -14.53125 C 8.8125 -14.53125 9.394531 -14.753906 9.8125 -15.203125 C 10.226562 -15.648438 10.4375 -16.304688 10.4375 -17.171875 Z M 10.4375 -21.65625 "/></g></g></g><g fill="#002438" fill-opacity="1"><g transform="translate(251.833206, 201.749987)"><g><path d="M 13.5625 -6.078125 C 13.5625 -4.960938 13.390625 -4 13.046875 -3.1875 C 12.710938 -2.382812 12.253906 -1.707031 11.671875 -1.15625 C 11.097656 -0.601562 10.429688 -0.191406 9.671875 0.078125 C 8.921875 0.347656 8.125 0.484375 7.28125 0.484375 C 6.34375 0.484375 5.476562 0.332031 4.6875 0.03125 C 3.90625 -0.257812 3.242188 -0.675781 2.703125 -1.21875 C 2.171875 -1.757812 1.753906 -2.390625 1.453125 -3.109375 C 1.160156 -3.835938 1.015625 -4.648438 1.015625 -5.546875 L 1.015625 -8.015625 L 4.328125 -8.015625 L 4.328125 -5.90625 C 4.328125 -4.769531 4.582031 -3.890625 5.09375 -3.265625 C 5.613281 -2.648438 6.34375 -2.34375 7.28125 -2.34375 C 8.28125 -2.34375 9.023438 -2.625 9.515625 -3.1875 C 10.003906 -3.757812 10.25 -4.519531 10.25 -5.46875 C 10.25 -6.082031 10.179688 -6.664062 10.046875 -7.21875 C 9.910156 -7.78125 9.691406 -8.328125 9.390625 -8.859375 C 9.097656 -9.398438 8.707031 -9.945312 8.21875 -10.5 C 7.726562 -11.050781 7.148438 -11.640625 6.484375 -12.265625 C 5.859375 -12.804688 5.234375 -13.40625 4.609375 -14.0625 C 3.992188 -14.726562 3.441406 -15.429688 2.953125 -16.171875 C 2.472656 -16.910156 2.078125 -17.691406 1.765625 -18.515625 C 1.453125 -19.335938 1.296875 -20.195312 1.296875 -21.09375 C 1.296875 -21.976562 1.421875 -22.8125 1.671875 -23.59375 C 1.929688 -24.382812 2.316406 -25.0625 2.828125 -25.625 C 3.347656 -26.195312 3.988281 -26.644531 4.75 -26.96875 C 5.519531 -27.289062 6.40625 -27.453125 7.40625 -27.453125 C 8.320312 -27.453125 9.144531 -27.300781 9.875 -27 C 10.601562 -26.707031 11.226562 -26.289062 11.75 -25.75 C 12.28125 -25.207031 12.6875 -24.566406 12.96875 -23.828125 C 13.257812 -23.085938 13.40625 -22.269531 13.40625 -21.375 L 13.40625 -18.859375 L 10.203125 -18.859375 L 10.203125 -21.015625 C 10.203125 -22.035156 9.972656 -22.867188 9.515625 -23.515625 C 9.054688 -24.171875 8.328125 -24.5 7.328125 -24.5 C 6.429688 -24.5 5.753906 -24.253906 5.296875 -23.765625 C 4.835938 -23.273438 4.609375 -22.597656 4.609375 -21.734375 C 4.609375 -21.085938 4.679688 -20.488281 4.828125 -19.9375 C 4.984375 -19.382812 5.222656 -18.835938 5.546875 -18.296875 C 5.867188 -17.753906 6.300781 -17.195312 6.84375 -16.625 C 7.382812 -16.0625 8.046875 -15.421875 8.828125 -14.703125 C 10.390625 -13.296875 11.566406 -11.914062 12.359375 -10.5625 C 13.160156 -9.21875 13.5625 -7.722656 13.5625 -6.078125 Z M 13.5625 -6.078125 "/></g></g></g><g fill="#002438" fill-opacity="1"><g transform="translate(168.407396, 237.057464)"><g><path d="M 1.828125 0 L 1.828125 -26.96875 L 12.390625 -26.96875 L 12.390625 -23.890625 L 5.1875 -23.890625 L 5.1875 -15.5 L 10.40625 -15.5 L 10.40625 -12.546875 L 5.1875 -12.546875 L 5.1875 -3.078125 L 12.390625 -3.078125 L 12.390625 0 Z M 1.828125 0 "/></g></g></g><g fill="#002438" fill-opacity="1"><g transform="translate(188.525155, 237.057464)"><g><path d="M 13.921875 -5.421875 C 13.921875 -3.554688 13.457031 -2.1875 12.53125 -1.3125 C 11.601562 -0.4375 10.273438 0 8.546875 0 L 1.828125 0 L 1.828125 -26.96875 L 8.421875 -26.96875 C 10.148438 -26.96875 11.472656 -26.523438 12.390625 -25.640625 C 13.304688 -24.765625 13.765625 -23.394531 13.765625 -21.53125 L 13.765625 -18.171875 C 13.765625 -15.773438 12.804688 -14.320312 10.890625 -13.8125 C 11.992188 -13.539062 12.773438 -13.023438 13.234375 -12.265625 C 13.691406 -11.515625 13.921875 -10.554688 13.921875 -9.390625 Z M 10.4375 -21.65625 C 10.4375 -22.363281 10.28125 -22.914062 9.96875 -23.3125 C 9.664062 -23.71875 9.148438 -23.921875 8.421875 -23.921875 L 5.21875 -23.921875 L 5.21875 -15.015625 L 8.0625 -15.015625 C 9.644531 -15.015625 10.4375 -15.894531 10.4375 -17.65625 Z M 10.5625 -9.671875 C 10.5625 -11.429688 9.765625 -12.3125 8.171875 -12.3125 L 5.21875 -12.3125 L 5.21875 -3.03125 L 8.546875 -3.03125 C 9.242188 -3.03125 9.753906 -3.222656 10.078125 -3.609375 C 10.398438 -4.003906 10.5625 -4.554688 10.5625 -5.265625 Z M 10.5625 -9.671875 "/></g></g></g><g fill="#002438" fill-opacity="1"><g transform="translate(210.504834, 237.057464)"><g><path d="M 13.5625 -6.078125 C 13.5625 -4.960938 13.390625 -4 13.046875 -3.1875 C 12.710938 -2.382812 12.253906 -1.707031 11.671875 -1.15625 C 11.097656 -0.601562 10.429688 -0.191406 9.671875 0.078125 C 8.921875 0.347656 8.125 0.484375 7.28125 0.484375 C 6.34375 0.484375 5.476562 0.332031 4.6875 0.03125 C 3.90625 -0.257812 3.242188 -0.675781 2.703125 -1.21875 C 2.171875 -1.757812 1.753906 -2.390625 1.453125 -3.109375 C 1.160156 -3.835938 1.015625 -4.648438 1.015625 -5.546875 L 1.015625 -8.015625 L 4.328125 -8.015625 L 4.328125 -5.90625 C 4.328125 -4.769531 4.582031 -3.890625 5.09375 -3.265625 C 5.613281 -2.648438 6.34375 -2.34375 7.28125 -2.34375 C 8.28125 -2.34375 9.023438 -2.625 9.515625 -3.1875 C 10.003906 -3.757812 10.25 -4.519531 10.25 -5.46875 C 10.25 -6.082031 10.179688 -6.664062 10.046875 -7.21875 C 9.910156 -7.78125 9.691406 -8.328125 9.390625 -8.859375 C 9.097656 -9.398438 8.707031 -9.945312 8.21875 -10.5 C 7.726562 -11.050781 7.148438 -11.640625 6.484375 -12.265625 C 5.859375 -12.804688 5.234375 -13.40625 4.609375 -14.0625 C 3.992188 -14.726562 3.441406 -15.429688 2.953125 -16.171875 C 2.472656 -16.910156 2.078125 -17.691406 1.765625 -18.515625 C 1.453125 -19.335938 1.296875 -20.195312 1.296875 -21.09375 C 1.296875 -21.976562 1.421875 -22.8125 1.671875 -23.59375 C 1.929688 -24.382812 2.316406 -25.0625 2.828125 -25.625 C 3.347656 -26.195312 3.988281 -26.644531 4.75 -26.96875 C 5.519531 -27.289062 6.40625 -27.453125 7.40625 -27.453125 C 8.320312 -27.453125 9.144531 -27.300781 9.875 -27 C 10.601562 -26.707031 11.226562 -26.289062 11.75 -25.75 C 12.28125 -25.207031 12.6875 -24.566406 12.96875 -23.828125 C 13.257812 -23.085938 13.40625 -22.269531 13.40625 -21.375 L 13.40625 -18.859375 L 10.203125 -18.859375 L 10.203125 -21.015625 C 10.203125 -22.035156 9.972656 -22.867188 9.515625 -23.515625 C 9.054688 -24.171875 8.328125 -24.5 7.328125 -24.5 C 6.429688 -24.5 5.753906 -24.253906 5.296875 -23.765625 C 4.835938 -23.273438 4.609375 -22.597656 4.609375 -21.734375 C 4.609375 -21.085938 4.679688 -20.488281 4.828125 -19.9375 C 4.984375 -19.382812 5.222656 -18.835938 5.546875 -18.296875 C 5.867188 -17.753906 6.300781 -17.195312 6.84375 -16.625 C 7.382812 -16.0625 8.046875 -15.421875 8.828125 -14.703125 C 10.390625 -13.296875 11.566406 -11.914062 12.359375 -10.5625 C 13.160156 -9.21875 13.5625 -7.722656 13.5625 -6.078125 Z M 13.5625 -6.078125 "/></g></g></g><g fill="#002438" fill-opacity="1"><g transform="translate(231.836888, 237.057464)"><g><path d="M 1.828125 0 L 1.828125 -26.96875 L 5.21875 -26.96875 L 5.21875 0 Z M 1.828125 0 "/></g></g></g><g fill="#002438" fill-opacity="1"><g transform="translate(245.599838, 237.057464)"><g><path d="M 8.421875 -23.84375 L 8.421875 0 L 5.0625 0 L 5.0625 -23.84375 L 0.484375 -23.84375 L 0.484375 -26.96875 L 12.921875 -26.96875 L 12.921875 -23.84375 Z M 8.421875 -23.84375 "/></g></g></g><g fill="#002438" fill-opacity="1"><g transform="translate(265.7176, 237.057464)"><g><path d="M 1.828125 0 L 1.828125 -26.96875 L 12.390625 -26.96875 L 12.390625 -23.890625 L 5.1875 -23.890625 L 5.1875 -15.5 L 10.40625 -15.5 L 10.40625 -12.546875 L 5.1875 -12.546875 L 5.1875 -3.078125 L 12.390625 -3.078125 L 12.390625 0 Z M 1.828125 0 "/></g></g></g><g fill="#002438" fill-opacity="1"><g transform="translate(285.835363, 237.057464)"><g><path d="M 13.5625 -6.078125 C 13.5625 -4.960938 13.390625 -4 13.046875 -3.1875 C 12.710938 -2.382812 12.253906 -1.707031 11.671875 -1.15625 C 11.097656 -0.601562 10.429688 -0.191406 9.671875 0.078125 C 8.921875 0.347656 8.125 0.484375 7.28125 0.484375 C 6.34375 0.484375 5.476562 0.332031 4.6875 0.03125 C 3.90625 -0.257812 3.242188 -0.675781 2.703125 -1.21875 C 2.171875 -1.757812 1.753906 -2.390625 1.453125 -3.109375 C 1.160156 -3.835938 1.015625 -4.648438 1.015625 -5.546875 L 1.015625 -8.015625 L 4.328125 -8.015625 L 4.328125 -5.90625 C 4.328125 -4.769531 4.582031 -3.890625 5.09375 -3.265625 C 5.613281 -2.648438 6.34375 -2.34375 7.28125 -2.34375 C 8.28125 -2.34375 9.023438 -2.625 9.515625 -3.1875 C 10.003906 -3.757812 10.25 -4.519531 10.25 -5.46875 C 10.25 -6.082031 10.179688 -6.664062 10.046875 -7.21875 C 9.910156 -7.78125 9.691406 -8.328125 9.390625 -8.859375 C 9.097656 -9.398438 8.707031 -9.945312 8.21875 -10.5 C 7.726562 -11.050781 7.148438 -11.640625 6.484375 -12.265625 C 5.859375 -12.804688 5.234375 -13.40625 4.609375 -14.0625 C 3.992188 -14.726562 3.441406 -15.429688 2.953125 -16.171875 C 2.472656 -16.910156 2.078125 -17.691406 1.765625 -18.515625 C 1.453125 -19.335938 1.296875 -20.195312 1.296875 -21.09375 C 1.296875 -21.976562 1.421875 -22.8125 1.671875 -23.59375 C 1.929688 -24.382812 2.316406 -25.0625 2.828125 -25.625 C 3.347656 -26.195312 3.988281 -26.644531 4.75 -26.96875 C 5.519531 -27.289062 6.40625 -27.453125 7.40625 -27.453125 C 8.320312 -27.453125 9.144531 -27.300781 9.875 -27 C 10.601562 -26.707031 11.226562 -26.289062 11.75 -25.75 C 12.28125 -25.207031 12.6875 -24.566406 12.96875 -23.828125 C 13.257812 -23.085938 13.40625 -22.269531 13.40625 -21.375 L 13.40625 -18.859375 L 10.203125 -18.859375 L 10.203125 -21.015625 C 10.203125 -22.035156 9.972656 -22.867188 9.515625 -23.515625 C 9.054688 -24.171875 8.328125 -24.5 7.328125 -24.5 C 6.429688 -24.5 5.753906 -24.253906 5.296875 -23.765625 C 4.835938 -23.273438 4.609375 -22.597656 4.609375 -21.734375 C 4.609375 -21.085938 4.679688 -20.488281 4.828125 -19.9375 C 4.984375 -19.382812 5.222656 -18.835938 5.546875 -18.296875 C 5.867188 -17.753906 6.300781 -17.195312 6.84375 -16.625 C 7.382812 -16.0625 8.046875 -15.421875 8.828125 -14.703125 C 10.390625 -13.296875 11.566406 -11.914062 12.359375 -10.5625 C 13.160156 -9.21875 13.5625 -7.722656 13.5625 -6.078125 Z M 13.5625 -6.078125 "/></g></g></g></svg>